<svg id="eT0H7dv5WgC1" xmlns="http://www.w3.org/2000/svg" xmlns:xlink="http://www.w3.org/1999/xlink" viewBox="0 0 1023.99 1023.99" shape-rendering="geometricPrecision" text-rendering="geometricPrecision" project-id="d19b234e544e41bca8123d38cf7af80a" export-id="1a290e58b623473fa20a5f5066d69cab" cached="false"><path d="M1024,1024c-337.92,0-675.84,0-1024,0" fill="#fefefe"/><path d="M0,0c1.105724-.010046,2.211447-.020091,3.350677-.030441c1.805516-.008747,1.805516-.008747,3.647507-.01767c1.275467-.009784,2.550934-.019568,3.865051-.029648c4.22342-.031295,8.446858-.051649,12.67035-.070205.720862-.003298,1.441725-.006595,2.184432-.009992c6.811365-.030789,13.622735-.05747,20.43415-.074419c8.679044-.021857,17.357466-.063733,26.036261-.133438c6.12001-.047463,12.239854-.071526,18.360043-.078759c3.645907-.004925,7.291112-.019696,10.936818-.059744c29.235233-.306275,29.235233-.306275,39.958452,6.664945.652749.415788,1.305498.831577,1.978027,1.259964c15.493127,11.114666,17.800989,31.309436,21.861328,48.628952c1.99508,8.49323,4.076642,16.964269,6.182007,25.430725.398582,1.604765.795825,3.209862,1.191651,4.815308c2.723575,11.08464,2.723575,11.08464,6.152221,21.967102c1.091668,3.264086,1.824209,6.604042,2.572266,9.960449.337436,1.478118.676007,2.955976,1.015625,4.433594.170801.743628.341601,1.487256.517578,2.253418c1.154181,4.907398,2.434417,9.784219,3.697266,14.664551.817085,3.521523,1.342507,7.006409,1.832031,10.585937.61276-.000624,1.225521-.001248,1.85685-.00189c66.710203-.067784,133.42041-.130606,200.130638-.167482c1.494656-.000829,1.494656-.000829,3.019507-.001674c21.655089-.011971,43.310178-.023052,64.965268-.033215c10.619597-.004989,21.239195-.010176,31.858792-.015465c1.056779-.000523,2.113559-.001046,3.202362-.001585c34.255418-.017047,68.510809-.047093,102.766211-.083878c35.200849-.037731,70.401683-.062353,105.602551-.070471c4.971478-.001152,9.942955-.002455,14.914433-.003849c1.467692-.000404,1.467692-.000404,2.965035-.000817c15.752744-.004727,31.505442-.023281,47.258168-.047002c15.835469-.02355,31.670894-.032543,47.506381-.026677c9.409022.003043,18.81788-.005076,28.226873-.029185c6.287097-.015009,12.574087-.015457,18.861191-.004137c3.581156.006033,7.162003.005804,10.743126-.012205c3.863118-.01928,7.725795-.007404,11.588942.007341c1.656528-.015762,1.656528-.015762,3.346522-.031843c11.27885.097317,20.884562,2.892233,28.984025,10.926378c6.781474,7.995887,9.35739,15.860802,8.722656,26.34375-.685417,6.830537-2.706643,13.298157-4.762207,19.820801-1.348037,4.330926-2.57697,8.696072-3.819824,13.058105-.256765.89179-.51353,1.783579-.778076,2.702393-1.478135,5.160904-2.840467,10.328477-4.096924,15.547607-1.860783,7.645558-4.167035,15.126883-6.498047,22.640625-1.671736,5.426877-3.198526,10.832846-4.501953,16.359375-1.888377,7.876308-4.403484,15.50591-6.922852,23.200196-2.878498,8.886261-5.330134,17.851719-7.703125,26.884033-1.818989,6.878639-3.864439,13.57929-6.194336,20.30249-2.419211,7.280456-4.419914,14.688912-6.493652,22.07373-4.833739,17.206596-9.88018,34.34964-14.93161,51.493195-4.24213,14.400529-8.445295,28.811746-12.550568,43.251923-1.297314,4.555816-2.61103,9.106125-3.949951,13.649902-.584719,1.985653-1.169353,3.97133-1.753906,5.957031-.291892.990645-.583784,1.981289-.884522,3.001953-1.887194,6.456165-3.65181,12.936131-5.355957,19.442871-9.630965,36.668377-9.630965,36.668377-25.575927,46.45752-5.7597,2.957683-10.83033,3.699381-17.246214,3.656252-.846045.002308-1.69209.004615-2.563772.006993-2.841972.005304-5.683717-.003688-8.525677-.01258-2.055205.000872-4.110409.002623-6.165613.005179-5.653054.004479-11.306033-.003538-16.959078-.013556-6.094021-.008625-12.188037-.005716-18.282063-.004196-10.560153.00105-21.120285-.005164-31.680431-.016476-11.075657-.011833-22.151304-.019531-33.226967-.021705-.688602-.000138-1.377204-.000275-2.086672-.000417-3.497049-.000677-6.994098-.001279-10.491146-.001854-24.770809-.004201-49.541605-.017676-74.312406-.036605-24.064778-.018368-48.129553-.032536-72.194336-.041015-.741757-.000263-1.483514-.000527-2.247748-.000798-7.449012-.002637-14.898024-.005188-22.347036-.007677-15.174552-.005073-30.349104-.010715-45.523655-.016702-.697704-.000275-1.395409-.00055-2.114255-.000833-46.593014-.018401-93.18602-.050133-139.779025-.083854.453809,1.896922.91325,3.792496,1.375,5.6875.382851,1.583614.382851,1.583614.773437,3.199219.772189,3.058296.772189,3.058296,1.882813,5.675781c1.024645,2.57814,1.585245,5.025869,2.09375,7.75.167578.883008.335156,1.766016.507812,2.675782.121172.663867.242344,1.327734.367188,2.011718c1.110939.000597,2.221878.001194,3.366482.00181c48.965145.026579,97.930284.058103,146.895404.114828.741414.000858,1.482827.001715,2.246707.002599c16.113249.018666,32.226497.038219,48.339745.058684c7.902035.010031,15.80407.019867,23.706105.029599.786344.000972,1.572688.001943,2.38286.002945c25.483564.031402,50.967118.049871,76.450698.061628c26.189644.01215,52.379244.037361,78.568859.078983c3.699857.005874,7.399715.011599,11.099573.017233c1.092268.00167,1.092268.00167,2.206602.003374c11.717451.017534,23.434869.021317,35.152333.019946c11.782574-.001084,23.565055.012668,35.347597.040536c6.383027.014663,12.765891.022833,19.148933.013638c5.844954-.008278,11.689578.001843,17.534483.026534c2.11323.005691,4.226491.004657,6.339711-.003824c14.742842-.054096,27.151746.552656,38.213908,11.531487c7.986955,9.636269,10.142537,18.575928,9.28125,30.89502-1.069002,8.000808-6.126953,15.033655-11.925781,20.41748-6.993438,5.010224-15.41861,7.782587-23.938233,7.892823-.663681.009899-1.327362.019799-2.011154.029998-2.191314.03156-4.38265.056351-6.574051.081086-1.520295.020574-3.040584.04157-4.560867.062973-3.999745.055171-7.999541.104602-11.999375.152847-4.082179.050251-8.164284.105918-12.246399.161133-8.0084.107521-16.016863.208979-24.02539.30664.813182.459541,1.626364.919082,2.464187,1.392548c1.072475.614087,2.14495,1.228174,3.249924,1.86087c1.060682.603916,2.121364,1.207832,3.214188,1.830048c4.506001,2.811441,8.093348,6.22861,11.759201,10.041534c1.090426,1.117497,1.090426,1.117497,2.202881,2.257569c20.974206,21.913805,29.904649,48.028227,29.414306,78.023681-.896803,25.792365-12.469974,49.228056-30.304687,67.59375-.684492.757969-1.368985,1.515938-2.074219,2.296875-15.769186,16.905966-41.073669,28.050606-64.015625,29.144532-13.157519.338049-25.442712-.018883-37.910156-4.441407-1.094414-.350625-2.188828-.70125-3.316406-1.0625-12.81602-4.441653-24.581731-11.942923-34.683594-20.9375-1.193027-1.051875-1.193027-1.051875-2.410156-2.125-11.240897-10.546134-19.899372-23.588283-25.589844-37.875-.301641-.665156-.603281-1.330312-.914063-2.015625-9.136166-21.225436-7.542825-50.078099.492188-71.355468c1.614568-3.977532,3.465318-7.810124,5.421875-11.628907.523359-1.055742,1.046719-2.111484,1.585937-3.199218c9.827264-18.336236,27.28449-32.148953,46.414063-39.800782-92.73,0-185.46,0-281,0c2.97,1.65,5.94,3.3,9,5c3.147717,2.161627,6.061501,4.563196,9,7c.719297.572344,1.438594,1.144688,2.179687,1.734375c16.412677,13.667496,25.343006,32.004042,30.820313,52.265625.351914,1.295508.351914,1.295508.710937,2.617188c1.406529,5.728038,1.95064,11.503701,2.289063,17.382812.065742.952617.131484,1.905235.199219,2.886719.952899,25.662562-9.941662,53.312365-27.199219,72.113281-.844336.925547-1.688672,1.851094-2.558594,2.804688-16.960365,17.772691-41.783186,29.741519-66.613281,30.496094-2.192627.019324-4.385441.022787-6.578125.011718-1.150891-.004914-2.301782-.009829-3.487549-.014892-8.336633-.114911-15.761657-.832767-23.762451-3.297608-1.213008-.340312-2.426016-.680625-3.675781-1.03125-15.166178-4.585483-26.741068-12.386033-38.324219-22.96875-1.107949-.984199-1.107949-.984199-2.238281-1.988281-17.065913-15.971505-29.357962-41.483105-30.95459-64.832275-.81745-31.347964,5.887158-59.555455,27.950683-82.878662c1.109883-1.138887,1.109883-1.138887,2.242188-2.300782.719297-.76957,1.438594-1.53914,2.179687-2.332031c5.42612-5.667495,11.357876-10.234858,17.820313-14.667969-.654844-.014582-1.309688-.029165-1.984375-.044189-3.005762-.075091-6.010486-.171547-9.015625-.268311-1.029961-.022558-2.059922-.045117-3.121094-.068359-8.410994-.294653-15.123016-1.434937-21.566406-7.306641-.705117-.622617-1.410235-1.245234-2.136719-1.886718-6.724419-7.497064-8.881971-15.690738-11.175781-25.300782-.344296-1.394452-.690254-2.788494-1.037842-4.182129-.682471-2.737685-1.359971-5.476517-2.033935-8.216308-1.175954-4.721133-2.429151-9.416497-3.740723-14.101563-.19908-.713899-.398159-1.427798-.603272-2.16333-.954616-3.378662-1.97897-6.713451-3.146728-10.02417-2.193573-6.295678-3.471918-12.878235-4.959961-19.367676-.679521-2.945285-1.383966-5.883835-2.102539-8.819824-.219141-.902343-.438281-1.804687-.664063-2.734375-.647529-2.493953-.647529-2.493953-1.636718-4.691406-1.639755-4.311064-2.571137-8.779316-3.636719-13.261719-2.37249-9.7693-5.118955-19.39151-8.0625-29-2.410812-7.871365-4.798454-15.705014-6.5625-23.75-1.504798-6.833716-3.5077-13.414522-5.668213-20.067627-1.708212-5.280472-3.16318-10.565815-4.445068-15.967529-.731403-2.905181-1.602348-5.735532-2.511719-8.589844-1.898096-6.033492-3.493596-12.123345-5.0625-18.25-2.14957-8.380383-4.489057-16.675074-7.017334-24.948486-1.804878-5.92135-3.428333-11.873636-4.990479-17.864014-1.371186-5.155456-2.914935-10.260337-4.429687-15.375-2.933537-9.928895-5.572902-19.9143-8.127686-29.946533-1.953864-7.617161-4.113258-15.141657-6.428955-22.655518-1.999162-6.548192-3.684435-13.149989-5.311523-19.799072-2.550118-10.400779-5.435665-20.69945-8.479492-30.966064-3.308619-11.173821-6.384348-22.355777-9.144776-33.677979-1.514544-6.151863-3.192694-12.216968-5.070068-18.267334-2.866339-9.240108-5.261197-18.589091-7.638916-27.963714-2.315978-9.117573-4.762154-18.17192-7.58374-27.147614-1.372393-4.390861-2.475742-8.769032-3.4375-13.267578-.605011-2.679335-1.419965-5.262473-2.277344-7.871094-1.998942-6.35088-3.606426-12.758444-5.179688-19.223877-1.832458-7.449982-3.926686-14.812026-6.128418-22.160888-.367624-1.248135-.367624-1.248135-.742675-2.521485-.219544-.731543-.439087-1.463086-.665284-2.216797-.471435-2.064453-.471435-2.064453-.471435-6.064453-1.222515.004442-2.445029.008883-3.70459.013459-11.534954.040586-23.069894.070545-34.604904.090166-5.929906.010426-11.859754.024564-17.789627.047254-5.725287.02177-11.450518.033699-17.175843.038876-2.181608.003688-4.363214.01089-6.544799.021705-3.061448.01457-6.122667.016516-9.184143.015591-.896961.007191-1.793922.014381-2.718064.02179-11.416725-.03719-20.559579-3.659573-29.02803-11.436341-7.305655-7.773078-10.617019-16.612951-10.460938-27.132812.83353-10.588909,5.922408-18.815648,13.523438-25.992188C-17.024262,2.736515,-9.416778,0.067541,0,0Z" transform="translate(67.5563 80.8394)" fill="#fff"/><path d="M0,0c1.105724-.010046,2.211447-.020091,3.350677-.030441c1.805516-.008747,1.805516-.008747,3.647507-.01767c1.275467-.009784,2.550934-.019568,3.865051-.029648c4.22342-.031295,8.446858-.051649,12.67035-.070205.720862-.003298,1.441725-.006595,2.184432-.009992c6.811365-.030789,13.622735-.05747,20.43415-.074419c8.679044-.021857,17.357466-.063733,26.036261-.133438c6.12001-.047463,12.239854-.071526,18.360043-.078759c3.645907-.004925,7.291112-.019696,10.936818-.059744c29.235233-.306275,29.235233-.306275,39.958452,6.664945.652749.415788,1.305498.831577,1.978027,1.259964c15.493127,11.114666,17.800989,31.309436,21.861328,48.628952c1.99508,8.49323,4.076642,16.964269,6.182007,25.430725.398582,1.604765.795825,3.209862,1.191651,4.815308c2.723575,11.08464,2.723575,11.08464,6.152221,21.967102c1.091705,3.264196,1.823306,6.604164,2.572266,9.960449.346926,1.505377.694598,3.010582,1.042969,4.515625.257893,1.120518.257893,1.120518.520996,2.263672c2.709362,11.729072,5.943828,23.263401,9.292236,34.824219c2.778269,9.664211,5.302507,19.37778,7.769562,29.124969c2.400409,9.460401,5.070309,18.79926,7.996795,28.110138c2.245592,7.228524,4.048479,14.512106,5.737549,21.888184c1.311619,5.696003,2.883875,11.235788,4.678955,16.800537c1.293336,4.309472,2.341303,8.662785,3.398438,13.035156c1.64529,6.782417,3.51987,13.428777,5.6875,20.0625c2.170097,6.641604,3.94604,13.267979,5.464599,20.085938c1.931072,8.524457,4.629593,16.808862,7.44336,25.078857.975734,2.983195,1.836332,5.968461,2.650635,8.999268.295839,1.09957.591679,2.19914.896484,3.332031.455361,1.703496.455361,1.703496.919922,3.441406.299707,1.112461.599414,2.224922.908203,3.371094c1.452639,5.413524,2.863778,10.831281,4.189453,16.277344c1.242099,5.010513,2.767933,9.854751,4.464844,14.726562c3.45352,10.367454,6.577799,20.692415,8.847656,31.386719.906783,3.908406,2.111219,7.691788,3.335938,11.511719c3.690625,11.560703,6.700894,23.313546,9.816406,35.039062c1.20569,4.530657,2.413722,9.060678,3.625,13.589844.292204,1.092632.584408,2.185263.885467,3.311005c1.813835,6.746735,3.721674,13.456699,5.725647,20.149063c2.180985,7.324107,4.098352,14.714588,6.015839,22.111252c3.159979,12.179136,6.364703,24.344616,9.748047,36.463836.278276,1.002891.556553,2.005782.843262,3.039063.257973.916523.515947,1.833047.781738,2.777344.21914.779318.438281,1.558637.664062,2.361572.669138,2.27512.669138,2.27512,1.671875,4.42334.986309,2.692186,1.559339,5.204232,2.104004,8.013443.176249.902533.352498,1.805065.534088,2.734948.132321.688971.264641,1.377942.400971,2.08779c1.110939.000597,2.221878.001194,3.366482.00181c48.965145.026579,97.930284.058103,146.895404.114828.741414.000858,1.482827.001715,2.246707.002599c16.113249.018666,32.226497.038219,48.339745.058684c7.902035.010031,15.80407.019867,23.706105.029599.786344.000972,1.572688.001943,2.38286.002945c25.483564.031402,50.967118.049871,76.450698.061628c26.189644.01215,52.379244.037361,78.568859.078983c3.699857.005874,7.399715.011599,11.099573.017233c1.092268.00167,1.092268.00167,2.206602.003374c11.717451.017534,23.434869.021317,35.152333.019946c11.782574-.001084,23.565055.012668,35.347597.040536c6.383027.014663,12.765891.022833,19.148933.013638c5.844954-.008278,11.689578.001843,17.534483.026534c2.11323.005691,4.226491.004657,6.339711-.003824c14.742842-.054096,27.151746.552656,38.213908,11.531487c7.986955,9.636269,10.142537,18.575928,9.28125,30.89502-1.069002,8.000808-6.126953,15.033655-11.925781,20.41748-6.993438,5.010224-15.41861,7.782587-23.938233,7.892823-.663681.009899-1.327362.019799-2.011154.029998-2.191314.03156-4.38265.056351-6.574051.081086-1.520295.020574-3.040584.04157-4.560867.062973-3.999745.055171-7.999541.104602-11.999375.152847-4.082179.050251-8.164284.105918-12.246399.161133-8.0084.107521-16.016863.208979-24.02539.30664.813182.459541,1.626364.919082,2.464187,1.392548c1.072475.614087,2.14495,1.228174,3.249924,1.86087c1.060682.603916,2.121364,1.207832,3.214188,1.830048c4.506001,2.811441,8.093348,6.22861,11.759201,10.041534c1.090426,1.117497,1.090426,1.117497,2.202881,2.257569c20.974206,21.913805,29.904649,48.028227,29.414306,78.023681-.896803,25.792365-12.469974,49.228056-30.304687,67.59375-.684492.757969-1.368985,1.515938-2.074219,2.296875-15.769186,16.905966-41.073669,28.050606-64.015625,29.144532-13.157519.338049-25.442712-.018883-37.910156-4.441407-1.094414-.350625-2.188828-.70125-3.316406-1.0625-12.81602-4.441653-24.581731-11.942923-34.683594-20.9375-1.193027-1.051875-1.193027-1.051875-2.410156-2.125-11.240897-10.546134-19.899372-23.588283-25.589844-37.875-.301641-.665156-.603281-1.330312-.914063-2.015625-9.136166-21.225436-7.542825-50.078099.492188-71.355468c1.614568-3.977532,3.465318-7.810124,5.421875-11.628907.523359-1.055742,1.046719-2.111484,1.585937-3.199218c9.827264-18.336236,27.28449-32.148953,46.414063-39.800782-92.73,0-185.46,0-281,0c2.97,1.65,5.94,3.3,9,5c3.147717,2.161627,6.061501,4.563196,9,7c.719297.572344,1.438594,1.144688,2.179687,1.734375c16.412677,13.667496,25.343006,32.004042,30.820313,52.265625.351914,1.295508.351914,1.295508.710937,2.617188c1.406529,5.728038,1.95064,11.503701,2.289063,17.382812.065742.952617.131484,1.905235.199219,2.886719.952899,25.662562-9.941662,53.312365-27.199219,72.113281-.844336.925547-1.688672,1.851094-2.558594,2.804688-16.960365,17.772691-41.783186,29.741519-66.613281,30.496094-2.192627.019324-4.385441.022787-6.578125.011718-1.150891-.004914-2.301782-.009829-3.487549-.014892-8.336633-.114911-15.761657-.832767-23.762451-3.297608-1.213008-.340312-2.426016-.680625-3.675781-1.03125-15.166178-4.585483-26.741068-12.386033-38.324219-22.96875-1.107949-.984199-1.107949-.984199-2.238281-1.988281-17.065913-15.971505-29.357962-41.483105-30.95459-64.832275-.81745-31.347964,5.887158-59.555455,27.950683-82.878662c1.109883-1.138887,1.109883-1.138887,2.242188-2.300782.719297-.76957,1.438594-1.53914,2.179687-2.332031c5.42612-5.667495,11.357876-10.234858,17.820313-14.667969-.654844-.014582-1.309688-.029165-1.984375-.044189-3.005762-.075091-6.010486-.171547-9.015625-.268311-1.029961-.022558-2.059922-.045117-3.121094-.068359-8.410994-.294653-15.123016-1.434937-21.566406-7.306641-.705117-.622617-1.410235-1.245234-2.136719-1.886718-6.724419-7.497064-8.881971-15.690738-11.175781-25.300782-.344296-1.394452-.690254-2.788494-1.037842-4.182129-.682471-2.737685-1.359971-5.476517-2.033935-8.216308-1.175954-4.721133-2.429151-9.416497-3.740723-14.101563-.19908-.713899-.398159-1.427798-.603272-2.16333-.954616-3.378662-1.97897-6.713451-3.146728-10.02417-2.193573-6.295678-3.471918-12.878235-4.959961-19.367676-.679521-2.945285-1.383966-5.883835-2.102539-8.819824-.219141-.902343-.438281-1.804687-.664063-2.734375-.647529-2.493953-.647529-2.493953-1.636718-4.691406-1.639755-4.311064-2.571137-8.779316-3.636719-13.261719-2.37249-9.7693-5.118955-19.39151-8.0625-29-2.410812-7.871365-4.798454-15.705014-6.5625-23.75-1.504798-6.833716-3.5077-13.414522-5.668213-20.067627-1.708212-5.280472-3.16318-10.565815-4.445068-15.967529-.731403-2.905181-1.602348-5.735532-2.511719-8.589844-1.898096-6.033492-3.493596-12.123345-5.0625-18.25-2.14957-8.380383-4.489057-16.675074-7.017334-24.948486-1.804878-5.92135-3.428333-11.873636-4.990479-17.864014-1.371186-5.155456-2.914935-10.260337-4.429687-15.375-2.933537-9.928895-5.572902-19.9143-8.127686-29.946533-1.953864-7.617161-4.113258-15.141657-6.428955-22.655518-1.999162-6.548192-3.684435-13.149989-5.311523-19.799072-2.550118-10.400779-5.435665-20.69945-8.479492-30.966064-3.308619-11.173821-6.384348-22.355777-9.144776-33.677979-1.514544-6.151863-3.192694-12.216968-5.070068-18.267334-2.866339-9.240108-5.261197-18.589091-7.638916-27.963714-2.315978-9.117573-4.762154-18.17192-7.58374-27.147614-1.372393-4.390861-2.475742-8.769032-3.4375-13.267578-.605011-2.679335-1.419965-5.262473-2.277344-7.871094-1.998942-6.35088-3.606426-12.758444-5.179688-19.223877-1.832458-7.449982-3.926686-14.812026-6.128418-22.160888-.367624-1.248135-.367624-1.248135-.742675-2.521485-.219544-.731543-.439087-1.463086-.665284-2.216797-.471435-2.064453-.471435-2.064453-.471435-6.064453-1.222515.004442-2.445029.008883-3.70459.013459-11.534954.040586-23.069894.070545-34.604904.090166-5.929906.010426-11.859754.024564-17.789627.047254-5.725287.02177-11.450518.033699-17.175843.038876-2.181608.003688-4.363214.01089-6.544799.021705-3.061448.01457-6.122667.016516-9.184143.015591-.896961.007191-1.793922.014381-2.718064.02179-11.416725-.03719-20.559579-3.659573-29.02803-11.436341-7.305655-7.773078-10.617019-16.612951-10.460938-27.132812.83353-10.588909,5.922408-18.815648,13.523438-25.992188C-17.024262,2.736515,-9.416778,0.067541,0,0Z" transform="translate(67.5563 80.8394)" fill="#fff"/><path d="M933.4573,80.8394h-57.711166L148.265099,897.000027l51.930009,2L933.4573,80.8394Z" transform="translate(-6.809444-1.702359)" fill="#fefcfc" stroke="#fefbfb" stroke-width="2.04798"/></svg>
